<svg width="196" height="53" viewBox="0 0 196 53" fill="none"
  xmlns="http://www.w3.org/2000/svg">
  <g clip-path="url(#clip0_1709_30318)">
    <path d="M195.056 32.2123C195.141 32.0795 195.184 31.924 195.181 31.7658C195.187 31.6116 195.145 31.4595 195.06 31.3311C194.989 31.2183 194.888 31.1279 194.768 31.0703C194.66 31.0139 194.54 30.9841 194.418 30.9834H193.223V33.4018H193.779V32.5877H194.258L194.647 33.4018H195.259L194.78 32.4652C194.886 32.4024 194.976 32.3159 195.045 32.2123M194.453 32.0661C194.391 32.1292 194.307 32.166 194.219 32.1689H193.768V31.3786H194.231C194.311 31.3825 194.388 31.41 194.453 31.4576C194.494 31.4925 194.525 31.5371 194.545 31.5874C194.565 31.6377 194.572 31.6922 194.566 31.7461C194.569 31.8013 194.56 31.8567 194.541 31.9084C194.521 31.9601 194.491 32.0071 194.453 32.0464" fill="black"/>
    <path d="M196.522 31.2199C196.256 30.5918 195.763 30.0911 195.144 29.821C194.825 29.6855 194.483 29.6157 194.138 29.6157C193.792 29.6157 193.45 29.6855 193.131 29.821C192.823 29.9536 192.543 30.1455 192.306 30.3861C192.066 30.6299 191.875 30.9195 191.746 31.2382C191.616 31.5569 191.55 31.8985 191.551 32.2434C191.548 32.5938 191.617 32.9409 191.753 33.2629C191.882 33.5758 192.07 33.8603 192.306 34.1006C192.55 34.3334 192.836 34.5171 193.147 34.642C193.466 34.7775 193.808 34.8473 194.153 34.8473C194.499 34.8473 194.841 34.7775 195.16 34.642C195.781 34.375 196.275 33.8734 196.538 33.2431C196.671 32.9196 196.74 32.5724 196.74 32.2216C196.74 31.8709 196.671 31.5237 196.538 31.2001M195.833 33.2155C195.662 33.5093 195.421 33.7551 195.132 33.9307C194.836 34.1018 194.5 34.1918 194.159 34.1918C193.818 34.1918 193.483 34.1018 193.186 33.9307C192.895 33.7564 192.653 33.5104 192.481 33.2155C192.31 32.9151 192.221 32.5744 192.221 32.2276C192.221 31.8807 192.31 31.54 192.481 31.2397C192.641 30.9451 192.869 30.6953 193.147 30.5126C193.444 30.3414 193.779 30.2515 194.12 30.2515C194.461 30.2515 194.797 30.3414 195.093 30.5126C195.382 30.6882 195.623 30.934 195.794 31.2278C195.965 31.5282 196.055 31.8689 196.055 32.2157C196.055 32.5625 195.965 32.9032 195.794 33.2036" fill="black"/>
    <mask id="mask0_1709_30318" style="mask-type:luminance" maskUnits="userSpaceOnUse" x="1" y="0" width="48" height="47">
      <path d="M27.9731 19.7184C29.3636 19.1379 30.8694 18.8983 32.3682 19.019C33.6363 19.1008 34.8886 19.3492 36.0938 19.758C32.8665 23.591 30.1375 24.895 28.3079 24.895C25.3726 24.895 24.7225 21.5243 27.977 19.7184M15.43 36.2203C15.8193 28.5542 17.0417 19.3667 20.701 13.3011C23.3366 8.6935 27.1828 5.75352 31.2665 5.23191C37.9312 4.4732 41.1468 9.4522 38.7059 15.2531C31.9166 12.0524 20.4091 14.4391 20.8217 22.8125C20.9307 29.6567 28.2884 31.8143 33.7229 28.4515C36.3851 26.8722 38.7125 24.7729 40.5706 22.2751C45.0553 26.0805 44.4363 36.1571 35.1166 40.3062C33.2559 41.0437 31.2747 41.4178 29.2772 41.4087C24.3215 41.4087 19.3385 39.263 15.4339 36.2163M10.7039 31.7866C10.4431 31.5258 10.2095 31.2334 9.96428 30.9489C9.96428 30.9489 9.96428 30.9489 9.94482 30.9252C9.70735 30.6288 9.46598 30.3561 9.2363 30.0519C9.2363 30.0519 9.20905 30.0202 9.20516 30.0084C7.82847 28.305 6.63318 26.4585 5.63921 24.4999L1.22461 26.9973C2.56387 29.5677 4.18308 31.9774 6.05187 34.1813C7.34535 35.7339 8.75068 37.1868 10.2563 38.528C10.1628 40.7093 10.0889 43.1079 10.0421 45.384L15.0757 45.4907C15.103 44.3961 15.1302 43.3055 15.1653 42.2267C29.4796 51.6038 48.6758 44.8664 48.2553 27.4043C48.1788 25.2546 47.5319 23.1658 46.3828 21.3583C45.5104 19.9887 44.4152 18.7795 43.1439 17.7822C43.4977 16.9597 43.7867 16.1101 44.0081 15.2413C46.2349 5.92739 40.2436 0 32.7575 0C23.4962 0 11.9536 9.01358 10.7039 31.7866Z" fill="white"/>
    </mask>
    <g mask="url(#mask0_1709_30318)">
      <path d="M48.6874 0H1.22461V51.6038H48.6874V0Z" fill="url(#paint0_linear_1709_30318)"/>
    </g>
    <mask id="mask1_1709_30318" style="mask-type:luminance" maskUnits="userSpaceOnUse" x="49" y="4" width="145" height="43">
      <path d="M134.514 40.5175C133.965 40.4137 133.457 40.1517 133.051 39.7628C129.5 36.3921 132.081 29.3029 135.044 26.1535C142.254 18.9023 146.115 27.4536 142.561 34.4281C140.809 37.8344 138.139 40.5847 135.293 40.5847C135.032 40.5857 134.772 40.5633 134.514 40.5175ZM80.5154 30.4331C81.002 28.9749 82.8512 26.1219 84.5835 24.8416C89.8546 20.969 93.3193 23.8497 91.9801 26.7265C91.0964 28.6074 88.1534 30.4884 82.31 30.4884C81.7456 30.4884 81.1422 30.4884 80.531 30.4331M107.84 27.9199C113.96 18.1041 121.66 23.8221 117.117 33.8472C114.692 38.2572 112.056 40.0433 109.938 40.0433C106.201 40.0433 104.122 34.4479 107.84 27.9357M55.4759 30.2315C55.9626 28.7694 57.8117 25.9164 59.5441 24.6361C64.8112 20.7635 68.2799 23.6442 66.9407 26.5249C66.057 28.4019 63.1139 30.2829 57.2706 30.2829C56.7061 30.2829 56.1027 30.2829 55.4915 30.2315M106.812 5.09546L106.392 6.81045C105.064 12.2162 100.311 31.7252 100.307 31.7371C99.593 32.9432 98.7651 34.076 97.8351 35.1197C97.8351 35.1197 96.1417 36.9137 94.8998 37.9371C92.9534 39.5178 90.6176 40.8534 88.0989 40.9996C86.73 41.1007 85.3556 40.9068 84.0658 40.4306C83.5353 40.2225 83.0319 39.9491 82.567 39.6166C81.8946 39.133 81.3314 38.5098 80.9146 37.7883C80.4977 37.0668 80.2369 36.2635 80.1495 35.4318C83.2405 35.5148 86.3782 35.5899 89.3641 34.8035C94.0045 33.5943 98.859 29.2476 97.3135 23.8971C96.3908 20.7042 93.4945 18.5427 90.3451 17.9697C83.6298 16.7843 76.7548 23.5217 75.2482 31.0416C75.1513 31.5481 74.9568 32.0302 74.676 32.4602C74.1041 33.3184 73.4732 34.1345 72.7879 34.9023C72.7879 34.9023 71.0984 36.6963 69.8565 37.7198C67.91 39.3004 65.5743 40.6361 63.0555 40.7823C61.6867 40.8834 60.3122 40.6895 59.0224 40.2133C58.4919 40.0051 57.9886 39.7317 57.5236 39.3992C56.8513 38.9157 56.288 38.2924 55.8712 37.5709C55.4544 36.8494 55.1936 36.0462 55.1061 35.2145C58.1971 35.2975 61.3348 35.3726 64.3207 34.5862C68.965 33.3612 73.8195 29.0144 72.274 23.6679C71.3514 20.4751 68.455 18.3135 65.3056 17.7406C54.7051 15.8398 43.7192 33.7524 54.0161 43.2244C57.5197 46.0577 61.9733 46.5239 66.0842 45.5439C68.5652 44.9204 70.8899 43.7762 72.9086 42.1851C73.3835 41.8136 75.7232 39.9564 76.167 39.5652C76.8816 41.0465 77.8717 42.3736 79.0828 43.4733C82.5864 46.3027 87.04 46.7729 91.1509 45.7889C93.6332 45.1693 95.9587 44.0248 97.9753 42.4301C98.3957 42.1061 100.556 40.4108 101.382 39.7351C101.424 39.8863 101.478 40.0342 101.541 40.1777C106.629 50.6138 120.477 46.2987 126.986 40.0631C131.848 52.1471 147.229 43.829 153.068 36.5383C152.597 40.5215 152.243 44.07 152.021 46.1762C153.131 46.1762 156.961 46.1762 157.37 46.1762C157.662 40.8376 158.355 33.381 161.061 28.8919C162.049 27.256 163.338 25.7307 165.218 25.1182C165.612 24.9681 166.041 24.9447 166.448 25.051C166.743 25.1787 167 25.3829 167.192 25.6429C167.385 25.903 167.507 26.2099 167.546 26.5328C167.725 27.5405 167.546 28.643 167.422 29.6506C167.336 30.491 167.244 31.3327 167.145 32.1757C166.986 33.5074 166.803 34.8351 166.616 36.1629C166.164 39.2886 165.74 42.4143 165.397 45.5558C165.397 45.6072 165.339 46.1762 165.331 46.1762H170.664C171.241 42.6909 171.626 39.1779 172.377 35.7242C173.156 32.1283 174.133 28.0424 177.275 25.7978C177.895 25.2986 178.66 25.0208 179.451 25.0075C179.659 25.0127 179.864 25.0542 180.058 25.13C181.884 25.8492 180.938 28.315 180.708 29.6269C180.615 30.1604 180.517 30.6899 180.405 31.2076C179.915 33.5392 179.545 35.8948 179.295 38.2651C179.194 39.2336 179.167 40.2086 179.213 41.1814C179.271 42.1056 179.553 43.0011 180.034 43.7877C180.515 44.5744 181.181 45.2279 181.972 45.6897C182.763 46.1515 183.654 46.4073 184.566 46.4343C185.478 46.4613 186.382 46.2585 187.198 45.8443C189.506 44.6351 191.636 42.1456 193.115 39.1977L189.541 36.4316C188.576 38.2335 187.688 39.9208 186.777 40.8257C185.866 41.7307 184.395 41.2209 184.095 39.9208C183.616 37.87 185.197 31.824 185.816 28.7023C187.404 20.7082 177.765 16.891 172.525 22.9764C170.474 18.0369 163.906 18.4756 160.375 21.5222C160.5 20.3367 160.508 20.2933 160.558 19.7796L155.221 19.0327C154.139 27.8092 154.711 28.7615 147.599 35.8902C153.52 20.969 140.202 12.6983 131.205 22.9013C129.872 24.4396 128.801 26.1932 128.037 28.0898C126.199 32.5827 124.568 36.1431 119.959 38.6682C124.669 31.5198 125.409 23.6245 119.531 18.9655H119.495C116.42 16.7724 112.488 17.4995 109.265 18.9893C109.288 18.8747 112.27 6.12683 112.332 5.86997L112.426 5.47482L106.976 4.43555L106.812 5.09546Z" fill="white"/>
    </mask>
    <g mask="url(#mask1_1709_30318)">
      <path d="M193.115 4.42383H43.7188V52.1393H193.115V4.42383Z" fill="url(#paint1_linear_1709_30318)"/>
    </g>
  </g>
  <defs>
    <linearGradient id="paint0_linear_1709_30318" x1="187.302" y1="25.2307" x2="19.7809" y2="25.2307" gradientUnits="userSpaceOnUse">
      <stop stop-color="#FF3200"/>
      <stop offset="0.01" stop-color="#FF3200"/>
      <stop offset="0.38" stop-color="#FFB400"/>
      <stop offset="0.69" stop-color="#DA33D0"/>
      <stop offset="1" stop-color="#006FD9"/>
    </linearGradient>
    <linearGradient id="paint1_linear_1709_30318" x1="186.877" y1="29.1461" x2="19.3553" y2="29.1461" gradientUnits="userSpaceOnUse">
      <stop stop-color="#FF3200"/>
      <stop offset="0.01" stop-color="#FF3200"/>
      <stop offset="0.38" stop-color="#FFB400"/>
      <stop offset="0.69" stop-color="#DA33D0"/>
      <stop offset="1" stop-color="#006FD9"/>
    </linearGradient>
    <clipPath id="clip0_1709_30318">
      <rect width="195.5" height="52.1333" fill="white" transform="translate(0.5)"/>
    </clipPath>
  </defs>
</svg>
